<svg xmlns="http://www.w3.org/2000/svg" xmlns:xlink="http://www.w3.org/1999/xlink" width="284" height="334" viewBox="0 0 284 334"><defs><filter id="a" x="0" y="0" width="284" height="334" filterUnits="userSpaceOnUse"><feOffset dy="12" input="SourceAlpha"/><feGaussianBlur stdDeviation="8" result="b"/><feFlood flood-opacity="0.161"/><feComposite operator="in" in2="b"/><feComposite in="SourceGraphic"/></filter></defs><g transform="translate(-1454 -499)"><g transform="matrix(1, 0, 0, 1, 1454, 499)" filter="url(#a)"><rect width="236" height="286" rx="11" transform="translate(24 12)" fill="#fff"/></g><g transform="translate(-91 361)"><path d="M91,183a90.575,90.575,0,0,1-50.879-15.541,91.266,91.266,0,0,1-32.97-40.037,90.88,90.88,0,0,1,8.39-86.3A91.266,91.266,0,0,1,55.579,8.151a90.88,90.88,0,0,1,86.3,8.39,91.266,91.266,0,0,1,32.97,40.037,90.88,90.88,0,0,1-8.39,86.3,91.266,91.266,0,0,1-40.037,32.97A90.43,90.43,0,0,1,91,183ZM91,29a63,63,0,1,0,63,63A63.071,63.071,0,0,0,91,29Z" transform="translate(1596 220)" fill="#f4f4f8"/><path d="M26.509,155.491h0a90.676,90.676,0,0,1-18.9-28.264A90.375,90.375,0,0,1,15.956,41.4,90.768,90.768,0,0,1,55.773,8.612,90.378,90.378,0,0,1,141.6,16.956a90.776,90.776,0,0,1,32.79,39.818,89.786,89.786,0,0,1,6.9,28.9L154.336,87.4A63.5,63.5,0,1,0,45.623,136.378L26.51,155.491Z" transform="translate(1596 220)" fill="#86ddf3"/></g><text transform="translate(1559 692)" fill="#8b8b95" font-size="55" font-family="Roboto-Black, Roboto" font-weight="800"><tspan x="0" y="0">68</tspan><tspan y="0" font-size="20">%</tspan></text><text transform="translate(1541 557)" fill="#3a3535" font-size="20" font-family="Roboto-Bold, Roboto" font-weight="700"><tspan x="0" y="0">Trust Rating</tspan></text></g></svg>