<svg xmlns="http://www.w3.org/2000/svg" xmlns:xlink="http://www.w3.org/1999/xlink" width="447" height="504" viewBox="0 0 447 504"><defs><filter id="a" x="0" y="0" width="447" height="504" filterUnits="userSpaceOnUse"><feOffset dy="11" input="SourceAlpha"/><feGaussianBlur stdDeviation="12" result="b"/><feFlood flood-opacity="0.161"/><feComposite operator="in" in2="b"/><feComposite in="SourceGraphic"/></filter></defs><g transform="translate(-1078 -273.449)"><g transform="matrix(1, 0, 0, 1, 1078, 273.45)" filter="url(#a)"><rect width="375" height="432" rx="11" transform="translate(36 25)" fill="#fff"/></g><g transform="translate(1158.537 420.375)"><g transform="translate(0 0)"><rect width="32" height="239" rx="3" transform="translate(0.463 0.074)" fill="#f4f4f8"/><rect width="32" height="111" rx="3" transform="translate(0.463 128.074)" fill="#8cde97"/></g><g transform="translate(64.133 0)"><rect width="33" height="239" rx="3" transform="translate(0.33 0.074)" fill="#f4f4f8"/><rect width="33" height="154" rx="3" transform="translate(0.33 85.074)" fill="#5959ce"/></g><g transform="translate(126.485 0)"><rect width="33" height="239" rx="3" transform="translate(-0.021 0.074)" fill="#f4f4f8"/><rect width="33" height="168" rx="3" transform="translate(-0.021 71.074)" fill="#de8c97"/></g><g transform="translate(253.86 0)"><rect width="32" height="239" rx="3" transform="translate(-0.397 0.074)" fill="#f4f4f8"/><rect width="32" height="195" rx="3" transform="translate(-0.397 44.074)" fill="#a48cde"/></g><g transform="translate(188.836 0)"><rect width="33" height="239" rx="3" transform="translate(-0.373 0.074)" fill="#f4f4f8"/><rect width="33" height="90" rx="3" transform="translate(-0.373 149.074)" fill="#d6de8c"/></g></g><text transform="translate(1159 348.449)" fill="#3a3535" font-size="19" font-family="Roboto-Medium, Roboto" font-weight="500"><tspan x="0" y="0">Performance Rating</tspan></text><text transform="translate(1159 364.449)" fill="#8b8b95" font-size="11" font-family="Roboto-Regular, Roboto"><tspan x="0" y="0">*based on monthly reports</tspan></text></g></svg>