<svg xmlns="http://www.w3.org/2000/svg" xmlns:xlink="http://www.w3.org/1999/xlink" width="605" height="358" viewBox="0 0 605 358"><defs><filter id="a" x="0" y="0" width="605" height="358" filterUnits="userSpaceOnUse"><feOffset dy="10" input="SourceAlpha"/><feGaussianBlur stdDeviation="11" result="b"/><feFlood flood-opacity="0.161"/><feComposite operator="in" in2="b"/><feComposite in="SourceGraphic"/></filter></defs><g transform="translate(-1114.237 -753.887)"><g transform="matrix(1, 0, 0, 1, 1114.24, 753.89)" filter="url(#a)"><rect width="539" height="292" rx="11" transform="translate(33 23)" fill="#fff"/></g><path d="M0,0H539a0,0,0,0,1,0,0V56a11,11,0,0,1-11,11H11A11,11,0,0,1,0,56V0A0,0,0,0,1,0,0Z" transform="translate(1147.237 1001.887)" fill="#86ddf3"/><line y2="145.908" transform="translate(1179.71 822.197)" fill="none" stroke="#f4f4f8" stroke-linecap="round" stroke-width="5"/><line y2="145.908" transform="translate(1247.514 822.197)" fill="none" stroke="#f4f4f8" stroke-linecap="round" stroke-width="5"/><line y2="145.908" transform="translate(1314.46 822.197)" fill="none" stroke="#f4f4f8" stroke-linecap="round" stroke-width="5"/><line y2="145.908" transform="translate(1382.264 822.197)" fill="none" stroke="#f4f4f8" stroke-linecap="round" stroke-width="5"/><line y2="145.908" transform="translate(1450.068 822.197)" fill="none" stroke="#f4f4f8" stroke-linecap="round" stroke-width="5"/><line y2="145.908" transform="translate(1517.872 822.197)" fill="none" stroke="#f4f4f8" stroke-linecap="round" stroke-width="5"/><line y2="145.908" transform="translate(1584.818 822.197)" fill="none" stroke="#f4f4f8" stroke-linecap="round" stroke-width="5"/><line y2="145.908" transform="translate(1652.622 822.197)" fill="none" stroke="#f4f4f8" stroke-linecap="round" stroke-width="5"/><g transform="translate(1373.112 924.755)"><g transform="translate(0.125 0.132)" fill="none" stroke="rgba(140,222,151,0.36)" stroke-width="1"><circle cx="9.5" cy="9.5" r="9.5" stroke="none"/><circle cx="9.5" cy="9.5" r="9" fill="none"/></g><circle cx="4.5" cy="4.5" r="4.5" transform="translate(5.125 5.132)" fill="#8cde97"/></g><g transform="translate(1440.112 871.755)"><g transform="translate(0.125 0.132)" fill="none" stroke="rgba(140,222,151,0.36)" stroke-width="1"><circle cx="9.5" cy="9.5" r="9.5" stroke="none"/><circle cx="9.5" cy="9.5" r="9" fill="none"/></g><circle cx="4.5" cy="4.5" r="4.5" transform="translate(5.125 5.132)" fill="#8cde97"/></g><g transform="translate(1575.112 864.755)"><g transform="translate(0.125 0.132)" fill="none" stroke="rgba(140,222,151,0.36)" stroke-width="1"><circle cx="9.5" cy="9.5" r="9.5" stroke="none"/><circle cx="9.5" cy="9.5" r="9" fill="none"/></g><circle cx="4.5" cy="4.5" r="4.5" transform="translate(5.125 5.132)" fill="#8cde97"/></g><g transform="translate(1305.556 828.246)"><g transform="translate(-0.319 -0.359)" fill="none" stroke="rgba(140,222,151,0.36)" stroke-width="1"><circle cx="10" cy="10" r="10" stroke="none"/><circle cx="10" cy="10" r="9.5" fill="none"/></g><circle cx="5" cy="5" r="5" transform="translate(4.681 4.641)" fill="#8cde97"/></g><g transform="translate(1305.556 828.246)"><g transform="translate(-0.319 -0.359)" fill="none" stroke="rgba(140,222,151,0.36)" stroke-width="1"><circle cx="10" cy="10" r="10" stroke="none"/><circle cx="10" cy="10" r="9.5" fill="none"/></g><circle cx="5" cy="5" r="5" transform="translate(4.681 4.641)" fill="#8cde97"/></g><g transform="translate(1508.225 825.029)"><g transform="translate(0.012 -0.142)" fill="none" stroke="rgba(140,222,151,0.36)" stroke-width="1"><circle cx="9.5" cy="9.5" r="9.5" stroke="none"/><circle cx="9.5" cy="9.5" r="9" fill="none"/></g><ellipse cx="4.5" cy="5" rx="4.5" ry="5" transform="translate(5.012 4.858)" fill="#8cde97"/></g><g transform="translate(1643.337 812.161)"><g transform="translate(-0.101 -0.274)" fill="none" stroke="rgba(140,222,151,0.36)" stroke-width="1"><ellipse cx="9.5" cy="10" rx="9.5" ry="10" stroke="none"/><ellipse cx="9.5" cy="10" rx="9" ry="9.5" fill="none"/></g><circle cx="5" cy="5" r="5" transform="translate(4.899 4.726)" fill="#8cde97"/></g><path d="M1144.462,907.385s33.784,13.19,67.776,1.87,38.16-76.806,71.843-70.147,33.6,87.439,62.89,96.781c33.936,10.825,68.257-53.868,68.257-53.868s33.872-44.956,67.663-46.606c33.616,5.156,33.769,43.053,67.5,40s50.336-39.185,67.435-52.2" transform="translate(35.215 -1.263)" fill="none" stroke="rgba(140,222,151,0.58)" stroke-width="2"/><text transform="translate(1173.237 1041.887)" fill="#fff" font-size="19" font-family="Roboto-Medium, Roboto" font-weight="500"><tspan x="0" y="0">Monthly User Engagement</tspan></text><g transform="translate(1237.556 898.246)"><g transform="translate(-0.319 -0.359)" fill="none" stroke="rgba(140,222,151,0.36)" stroke-width="1"><circle cx="10" cy="10" r="10" stroke="none"/><circle cx="10" cy="10" r="9.5" fill="none"/></g><circle cx="5" cy="5" r="5" transform="translate(4.681 4.641)" fill="#8cde97"/></g><g transform="translate(1169.556 896.246)"><g transform="translate(-0.319 -0.359)" fill="none" stroke="rgba(140,222,151,0.36)" stroke-width="1"><circle cx="10" cy="10" r="10" stroke="none"/><circle cx="10" cy="10" r="9.5" fill="none"/></g><circle cx="5" cy="5" r="5" transform="translate(4.681 4.641)" fill="#8cde97"/></g></g></svg>