<svg xmlns="http://www.w3.org/2000/svg" xmlns:xlink="http://www.w3.org/1999/xlink" width="840" height="701" viewBox="0 0 840 701"><defs><filter id="a" x="556" y="279" width="284" height="334" filterUnits="userSpaceOnUse"><feOffset dy="12" input="SourceAlpha"/><feGaussianBlur stdDeviation="8" result="b"/><feFlood flood-opacity="0.161"/><feComposite operator="in" in2="b"/><feComposite in="SourceGraphic"/></filter><filter id="c" x="0" y="391" width="517" height="310" filterUnits="userSpaceOnUse"><feOffset dy="10" input="SourceAlpha"/><feGaussianBlur stdDeviation="11" result="d"/><feFlood flood-opacity="0.161"/><feComposite operator="in" in2="d"/><feComposite in="SourceGraphic"/></filter><filter id="e" x="202" y="0" width="447" height="504" filterUnits="userSpaceOnUse"><feOffset dy="11" input="SourceAlpha"/><feGaussianBlur stdDeviation="12" result="f"/><feFlood flood-opacity="0.161"/><feComposite operator="in" in2="f"/><feComposite in="SourceGraphic"/></filter></defs><g transform="translate(-898 -231)"><g transform="translate(0 11)"><g transform="matrix(1, 0, 0, 1, 898, 220)" filter="url(#a)"><rect width="236" height="286" rx="11" transform="translate(580 291)" fill="#fff"/></g><g transform="translate(-91 361)"><path d="M91,183a90.575,90.575,0,0,1-50.879-15.541,91.266,91.266,0,0,1-32.97-40.037,90.88,90.88,0,0,1,8.39-86.3A91.266,91.266,0,0,1,55.579,8.151a90.88,90.88,0,0,1,86.3,8.39,91.266,91.266,0,0,1,32.97,40.037,90.88,90.88,0,0,1-8.39,86.3,91.266,91.266,0,0,1-40.037,32.97A90.43,90.43,0,0,1,91,183ZM91,29a63,63,0,1,0,63,63A63.071,63.071,0,0,0,91,29Z" transform="translate(1596 220)" fill="#f4f4f8"/><path d="M26.509,155.491h0a90.676,90.676,0,0,1-18.9-28.264A90.375,90.375,0,0,1,15.956,41.4,90.768,90.768,0,0,1,55.773,8.612,90.378,90.378,0,0,1,141.6,16.956a90.776,90.776,0,0,1,32.79,39.818,89.786,89.786,0,0,1,6.9,28.9L154.336,87.4A63.5,63.5,0,1,0,45.623,136.378L26.51,155.491Z" transform="translate(1596 220)" fill="#86ddf3"/></g><text transform="translate(1559 692)" fill="#8b8b95" font-size="55" font-family="Roboto-Black, Roboto" font-weight="800"><tspan x="0" y="0">68</tspan><tspan y="0" font-size="20">%</tspan></text><text transform="translate(1541 557)" fill="#3a3535" font-size="20" font-family="Roboto-Bold, Roboto" font-weight="700"><tspan x="0" y="0">Trust Rating</tspan></text></g><g transform="translate(-216.475 -132.179)"><g transform="matrix(1, 0, 0, 1, 1114.48, 363.18)" filter="url(#c)"><rect width="451" height="244" rx="11" transform="translate(33 414)" fill="#fff"/></g><path d="M0,0H451a0,0,0,0,1,0,0V45a11,11,0,0,1-11,11H11A11,11,0,0,1,0,45V0A0,0,0,0,1,0,0Z" transform="translate(1147.475 965.179)" fill="#86ddf3"/><line y2="122.215" transform="translate(1174.437 814.839)" fill="none" stroke="#f4f4f8" stroke-linecap="round" stroke-width="5"/><line y2="122.215" transform="translate(1231.231 814.839)" fill="none" stroke="#f4f4f8" stroke-linecap="round" stroke-width="5"/><line y2="122.215" transform="translate(1287.306 814.839)" fill="none" stroke="#f4f4f8" stroke-linecap="round" stroke-width="5"/><line y2="122.215" transform="translate(1344.1 814.839)" fill="none" stroke="#f4f4f8" stroke-linecap="round" stroke-width="5"/><line y2="122.215" transform="translate(1400.894 814.839)" fill="none" stroke="#f4f4f8" stroke-linecap="round" stroke-width="5"/><line y2="122.215" transform="translate(1457.688 814.839)" fill="none" stroke="#f4f4f8" stroke-linecap="round" stroke-width="5"/><line y2="122.215" transform="translate(1513.763 814.839)" fill="none" stroke="#f4f4f8" stroke-linecap="round" stroke-width="5"/><line y2="122.215" transform="translate(1570.557 814.839)" fill="none" stroke="#f4f4f8" stroke-linecap="round" stroke-width="5"/><g transform="translate(1392.659 856.461)"><g transform="translate(-0.184 -0.281)" fill="none" stroke="rgba(140,222,151,0.36)" stroke-width="1"><circle cx="8" cy="8" r="8" stroke="none"/><circle cx="8" cy="8" r="7.5" fill="none"/></g><circle cx="4" cy="4" r="4" transform="translate(3.816 3.719)" fill="#8cde97"/></g><g transform="translate(1336.659 901.461)"><g transform="translate(-0.184 -0.281)" fill="none" stroke="rgba(140,222,151,0.36)" stroke-width="1"><circle cx="8" cy="8" r="8" stroke="none"/><circle cx="8" cy="8" r="7.5" fill="none"/></g><circle cx="4" cy="4" r="4" transform="translate(3.816 3.719)" fill="#8cde97"/></g><g transform="translate(1279.581 819.606)"><g transform="translate(-0.105 -0.426)" fill="none" stroke="rgba(140,222,151,0.36)" stroke-width="1"><circle cx="8.5" cy="8.5" r="8.5" stroke="none"/><circle cx="8.5" cy="8.5" r="8" fill="none"/></g><ellipse cx="4.5" cy="4" rx="4.5" ry="4" transform="translate(3.895 4.574)" fill="#8cde97"/></g><g transform="translate(1449.617 817.093)"><g transform="translate(-0.142 0.087)" fill="none" stroke="rgba(140,222,151,0.36)" stroke-width="1"><circle cx="8" cy="8" r="8" stroke="none"/><circle cx="8" cy="8" r="7.5" fill="none"/></g><circle cx="4" cy="4" r="4" transform="translate(3.858 4.087)" fill="#8cde97"/></g><g transform="translate(1562.617 806.093)"><g transform="translate(-0.142 0.087)" fill="none" stroke="rgba(140,222,151,0.36)" stroke-width="1"><circle cx="8" cy="8" r="8" stroke="none"/><circle cx="8" cy="8" r="7.5" fill="none"/></g><circle cx="4" cy="4" r="4" transform="translate(3.858 4.087)" fill="#8cde97"/></g><g transform="translate(1505.617 850.093)"><g transform="translate(-0.142 0.087)" fill="none" stroke="rgba(140,222,151,0.36)" stroke-width="1"><circle cx="8" cy="8" r="8" stroke="none"/><circle cx="8" cy="8" r="7.5" fill="none"/></g><circle cx="4" cy="4" r="4" transform="translate(3.858 4.087)" fill="#8cde97"/></g><path d="M1144.462,893.718s28.3,11.048,56.771,1.566,31.964-64.334,60.177-58.757,28.147,73.24,52.678,81.066c28.425,9.068,57.173-45.121,57.173-45.121s28.372-37.656,56.676-39.038c28.157,4.319,28.285,36.062,56.542,33.509s42.163-32.822,56.485-43.723" transform="translate(29.948 -8.582)" fill="none" stroke="rgba(140,222,151,0.58)" stroke-width="2"/><text transform="translate(1169.475 998.179)" fill="#fff" font-size="15" font-family="Roboto-Medium, Roboto" font-weight="500"><tspan x="0" y="0">Monthly User Engagement</tspan></text><g transform="translate(1222.623 878.239)"><g transform="translate(-0.147 -0.06)" fill="none" stroke="rgba(140,222,151,0.36)" stroke-width="1"><circle cx="8.5" cy="8.5" r="8.5" stroke="none"/><circle cx="8.5" cy="8.5" r="8" fill="none"/></g><circle cx="4.5" cy="4.5" r="4.5" transform="translate(3.853 3.94)" fill="#8cde97"/></g><g transform="translate(1165.623 876.239)"><g transform="translate(-0.147 -0.06)" fill="none" stroke="rgba(140,222,151,0.36)" stroke-width="1"><circle cx="8.5" cy="8.5" r="8.5" stroke="none"/><circle cx="8.5" cy="8.5" r="8" fill="none"/></g><circle cx="4.5" cy="4.5" r="4.5" transform="translate(3.853 3.94)" fill="#8cde97"/></g></g><g transform="translate(1136 256)"><g transform="matrix(1, 0, 0, 1, -238, -25)" filter="url(#e)"><rect width="375" height="432" rx="11" transform="translate(238 25)" fill="#fff"/></g><g transform="translate(44.537 121.926)"><g transform="translate(0 0)"><rect width="32" height="239" rx="3" transform="translate(0.463 0.074)" fill="#f4f4f8"/><rect width="32" height="111" rx="3" transform="translate(0.463 128.074)" fill="#8cde97"/></g><g transform="translate(64.133 0)"><rect width="33" height="239" rx="3" transform="translate(0.33 0.074)" fill="#f4f4f8"/><rect width="33" height="154" rx="3" transform="translate(0.33 85.074)" fill="#5959ce"/></g><g transform="translate(126.485 0)"><rect width="33" height="239" rx="3" transform="translate(-0.021 0.074)" fill="#f4f4f8"/><rect width="33" height="168" rx="3" transform="translate(-0.021 71.074)" fill="#de8c97"/></g><g transform="translate(253.86 0)"><rect width="32" height="239" rx="3" transform="translate(-0.397 0.074)" fill="#f4f4f8"/><rect width="32" height="195" rx="3" transform="translate(-0.397 44.074)" fill="#a48cde"/></g><g transform="translate(188.836 0)"><rect width="33" height="239" rx="3" transform="translate(-0.373 0.074)" fill="#f4f4f8"/><rect width="33" height="90" rx="3" transform="translate(-0.373 149.074)" fill="#d6de8c"/></g></g><text transform="translate(45 50)" fill="#3a3535" font-size="19" font-family="Roboto-Medium, Roboto" font-weight="500"><tspan x="0" y="0">Performance Rating</tspan></text><text transform="translate(45 66)" fill="#8b8b95" font-size="11" font-family="Roboto-Regular, Roboto"><tspan x="0" y="0">*based on monthly reports</tspan></text></g></g></svg>